<?xml version="1.0" encoding="UTF-8"?>
<svg width="29px" height="29px" viewBox="0 0 29 29" version="1.1" xmlns="http://www.w3.org/2000/svg" xmlns:xlink="http://www.w3.org/1999/xlink">
    <title>NOTI</title>
    <defs>
        <circle id="path-1" cx="14.5" cy="12.5" r="12.5"></circle>
        <filter x="-16.0%" y="-8.0%" width="132.0%" height="132.0%" filterUnits="objectBoundingBox" id="filter-2">
            <feOffset dx="0" dy="2" in="SourceAlpha" result="shadowOffsetOuter1"></feOffset>
            <feGaussianBlur stdDeviation="1" in="shadowOffsetOuter1" result="shadowBlurOuter1"></feGaussianBlur>
            <feColorMatrix values="0 0 0 0 0   0 0 0 0 0   0 0 0 0 0  0 0 0 0.308282382 0" type="matrix" in="shadowBlurOuter1"></feColorMatrix>
        </filter>
    </defs>
    <g id="Page-1" stroke="none" stroke-width="1" fill="none" fill-rule="evenodd">
        <g id="M_HOMEPAGE_PR" transform="translate(-123.000000, -187.000000)">
            <g id="ONE" transform="translate(43.000000, 166.000000)">
                <g id="NOTI" transform="translate(80.000000, 21.000000)">
                    <g id="Oval-56">
                        <use fill="black" fill-opacity="1" filter="url(#filter-2)" xlink:href="#path-1"></use>
                        <use fill="#F60051" fill-rule="evenodd" xlink:href="#path-1"></use>
                    </g>
                    <path d="M17.7565595,11.5153343 C16.3583848,8.50672037 15.6317067,7.3642196 13.3470731,7.41143038 C12.5334536,7.42823006 12.7289185,6.82221537 12.1085566,7.05213798 C11.4886853,7.28218322 12.0206342,7.61866729 11.3864157,8.13896683 C9.60675337,9.59968049 9.77082615,10.9511349 10.596095,14.1720134 C10.9441059,15.5284955 9.75782785,15.5950811 10.2272379,16.9102384 C10.5697306,17.8690464 13.0958136,18.2705219 15.7609539,17.2815481 C18.4260941,16.2928196 20.1083919,14.329955 19.7658992,13.371147 C19.2963665,12.0559897 18.3457745,12.7820546 17.7565595,11.5153343 L17.7565595,11.5153343 Z M15.4716806,16.4713622 C13.0915217,17.3545102 11.1352789,16.8349464 11.0526294,16.6041655 C10.9101387,16.2058782 11.8210001,14.8774773 14.5421801,13.8676572 C17.2636054,12.8579598 18.7820756,13.2323351 18.9408755,13.67722 C19.0348066,13.9398836 17.8520847,15.5882141 15.4716806,16.4713622 L15.4716806,16.4713622 Z M14.7067434,14.3286061 C13.4623409,14.7904133 12.597464,15.3185609 12.0379244,15.7941021 C12.4316745,16.151923 13.1697567,16.2392323 13.9055091,15.9662682 C14.8419992,15.6188704 15.4169897,14.8213149 15.1895196,14.1850117 C15.1869444,14.1772863 15.1827752,14.1704193 15.1799548,14.1628165 C15.0264278,14.2135835 14.8688542,14.2685196 14.7067434,14.3286061 L14.7067434,14.3286061 Z" id="Shape" fill="#FFFFFF"></path>
                </g>
            </g>
        </g>
    </g>
</svg>