<?xml version="1.0" encoding="UTF-8"?>
<svg width="8px" height="8px" viewBox="0 0 8 8" version="1.1" xmlns="http://www.w3.org/2000/svg" xmlns:xlink="http://www.w3.org/1999/xlink">
    <title>Shape</title>
    <g id="Page-1" stroke="none" stroke-width="1" fill="none" fill-rule="evenodd">
        <g id="M_HOMEPAGE_PR" transform="translate(-415.000000, -209.000000)">
            <g id="ONE" transform="translate(43.000000, 166.000000)">
                <g id="STATS" transform="translate(361.000000, 18.000000)">
                    <g id="INSTAGRAM">
                        <text id="REACH" font-family="Lato-Bold, Lato" font-size="8" font-weight="bold" fill="#8D8D8D">
                            <tspan x="20.708" y="32">REACH</tspan>
                        </text>
                        <path d="M12.0152875,25 L17.8947936,25 C18.453157,25 18.9099998,25.413392 18.9099998,26.0152063 L18.9099998,31.8948748 C18.9099998,32.4966891 18.453157,32.9100811 17.8947936,32.9100811 L12.0152875,32.9100811 C11.4567616,32.9100811 11,32.4966891 11,31.8948748 L11,26.0152063 C11,25.413392 11.4567616,25 12.0152875,25 L12.0152875,25 L12.0152875,25 Z M16.7621483,25.8788438 C16.5662541,25.8788438 16.4061764,26.0390027 16.4061764,26.2349781 L16.4061764,27.0873453 C16.4061764,27.2832395 16.5662541,27.4434796 16.7621483,27.4434796 L17.6561795,27.4434796 C17.8520737,27.4434796 18.0123139,27.2832395 18.0123139,27.0873453 L18.0123139,26.2349781 C18.0123139,26.0390027 17.8520737,25.8788438 17.6561795,25.8788438 L16.7621483,25.8788438 L16.7621483,25.8788438 L16.7621483,25.8788438 Z M18.0160498,28.3451452 L17.319862,28.3451452 C17.3857286,28.5602065 17.4213826,28.7880188 17.4213826,29.0237091 C17.4213826,30.3394164 16.3204117,31.4059515 14.9625531,31.4059515 C13.6047756,31.4059515 12.5039672,30.3394164 12.5039672,29.0237091 C12.5039672,28.7878564 12.53954,28.5601253 12.6054878,28.3451452 L11.8790062,28.3451452 L11.8790062,31.6864733 C11.8790062,31.8593832 12.0204853,32.0009436 12.1934765,32.0009436 L17.701742,32.0009436 C17.8747331,32.0009436 18.0162123,31.8594644 18.0162123,31.6864733 L18.0162123,28.3451452 L18.0160498,28.3451452 L18.0160498,28.3451452 Z M14.9624718,27.3985669 C14.0851712,27.3985669 13.3738771,28.0876889 13.3738771,28.9378632 C13.3738771,29.7880376 14.0851712,30.4771596 14.9624718,30.4771596 C15.8398537,30.4771596 16.551229,29.7880376 16.551229,28.9378632 C16.551229,28.0876889 15.8399349,27.3985669 14.9624718,27.3985669 L14.9624718,27.3985669 Z" id="Shape" fill="#D9D9D9"></path>
                    </g>
                </g>
            </g>
        </g>
    </g>
</svg>