<?xml version="1.0" encoding="UTF-8"?>
<svg width="8px" height="8px" viewBox="0 0 8 8" version="1.1" xmlns="http://www.w3.org/2000/svg" xmlns:xlink="http://www.w3.org/1999/xlink">
    <title>Group 4</title>
    <g id="Page-1" stroke="none" stroke-width="1" fill="none" fill-rule="evenodd">
        <g id="M_HOMEPAGE_PR" transform="translate(-48.000000, -255.000000)" fill="#F60051">
            <g id="ONE" transform="translate(43.000000, 166.000000)">
                <g id="Group-4" transform="translate(5.000000, 89.000000)">
                    <path d="M1.01528747,0 L6.89479359,0 C7.45315703,0 7.90999985,0.413391987 7.90999985,1.01520626 L7.90999985,6.89487481 C7.90999985,7.49668908 7.45315703,7.91008106 6.89479359,7.91008106 L1.01528747,7.91008106 C0.456761599,7.91008106 0,7.49668908 0,6.89487481 L0,1.01520626 C0,0.413391987 0.456761599,0 1.01528747,0 L1.01528747,0 L1.01528747,0 Z M5.76214828,0.878843752 C5.56625408,0.878843752 5.40617635,1.03900269 5.40617635,1.23497811 L5.40617635,2.08734528 C5.40617635,2.28323948 5.56625408,2.44347963 5.76214828,2.44347963 L6.65617951,2.44347963 C6.85207371,2.44347963 7.01231387,2.28323948 7.01231387,2.08734528 L7.01231387,1.23497811 C7.01231387,1.03900269 6.85207371,0.878843752 6.65617951,0.878843752 L5.76214828,0.878843752 L5.76214828,0.878843752 L5.76214828,0.878843752 Z M7.01604983,3.34514522 L6.31986198,3.34514522 C6.38572857,3.56020651 6.42138261,3.7880188 6.42138261,4.02370908 C6.42138261,5.33941639 5.32041173,6.40595148 3.96255306,6.40595148 C2.6047756,6.40595148 1.50396716,5.33941639 1.50396716,4.02370908 C1.50396716,3.78785637 1.53953998,3.5601253 1.60548778,3.34514522 L0.879006185,3.34514522 L0.879006185,6.68647327 C0.879006185,6.8593832 1.02048533,7.00094356 1.19347647,7.00094356 L6.70174197,7.00094356 C6.87473312,7.00094356 7.01621226,6.85946441 7.01621226,6.68647327 L7.01621226,3.34514522 L7.01604983,3.34514522 L7.01604983,3.34514522 Z M3.96247184,2.39856691 C3.0851712,2.39856691 2.37387709,3.08768892 2.37387709,3.93786324 C2.37387709,4.78803757 3.0851712,5.47715958 3.96247184,5.47715958 C4.8398537,5.47715958 5.55122902,4.78803757 5.55122902,3.93786324 C5.55122902,3.08768892 4.83993491,2.39856691 3.96247184,2.39856691 L3.96247184,2.39856691 Z" id="Shape"></path>
                </g>
            </g>
        </g>
    </g>
</svg>