<?xml version="1.0" encoding="UTF-8"?>
<svg width="25px" height="19px" viewBox="0 0 25 19" version="1.1" xmlns="http://www.w3.org/2000/svg" xmlns:xlink="http://www.w3.org/1999/xlink">
    <title>mail</title>
    <g id="Page-1" stroke="none" stroke-width="1" fill="none" fill-rule="evenodd">
        <g id="M_HOMEPAGE_PR" transform="translate(-836.000000, -19.000000)" fill="#BDBDBD">
            <g id="MENU" transform="translate(-5.000000, -1.000000)">
                <g id="mail" transform="translate(841.000000, 20.000000)">
                    <g id="Capa_1">
                        <path d="M23.0748945,0.016011236 L1.92510549,0.016011236 C0.864978903,0.016011236 0,0.891292135 0,1.96404494 L0,17.0359551 C0,18.1087079 0.864978903,18.9839888 1.92510549,18.9839888 L23.0748945,18.9839888 C24.1350211,18.9839888 25,18.1087079 25,17.0359551 L25,1.96404494 C25,0.891292135 24.1350211,0.016011236 23.0748945,0.016011236 L23.0748945,0.016011236 Z M22.7953586,1.45702247 L12.6318565,10.2525281 L2.46835443,1.45702247 L22.7953586,1.45702247 L22.7953586,1.45702247 Z M23.5759494,17.0359551 C23.5759494,17.3134831 23.3491561,17.5429775 23.0748945,17.5429775 L1.92510549,17.5429775 C1.65084388,17.5429775 1.42405063,17.3134831 1.42405063,17.0359551 L1.42405063,2.4497191 L12.1677215,11.7469101 C12.1729958,11.7522472 12.1835443,11.7575843 12.1888186,11.7629213 C12.1940928,11.7682584 12.2046414,11.7735955 12.2099156,11.7789326 C12.2257384,11.7896067 12.2362869,11.8002809 12.2521097,11.805618 C12.257384,11.8109551 12.2626582,11.8109551 12.2679325,11.8162921 C12.2890295,11.8269663 12.3101266,11.8376404 12.3312236,11.8483146 C12.3364979,11.8483146 12.3417722,11.8536517 12.3470464,11.8536517 C12.3628692,11.8589888 12.378692,11.8696629 12.399789,11.875 C12.4050633,11.875 12.4156118,11.8803371 12.4208861,11.8803371 C12.4367089,11.8856742 12.4525316,11.8910112 12.4683544,11.8910112 C12.4736287,11.8910112 12.4841772,11.8963483 12.4894515,11.8963483 C12.5052743,11.9016854 12.5263713,11.9016854 12.5421941,11.9070225 L12.5580169,11.9070225 C12.5791139,11.9070225 12.6054852,11.9123596 12.6265823,11.9123596 L12.6265823,11.9123596 L12.6265823,11.9123596 C12.6476793,11.9123596 12.6740506,11.9123596 12.6951477,11.9070225 L12.7109705,11.9070225 C12.7267932,11.9070225 12.7478903,11.9016854 12.7637131,11.8963483 C12.7689873,11.8963483 12.7795359,11.8910112 12.7848101,11.8910112 C12.8006329,11.8856742 12.8164557,11.8803371 12.8322785,11.8803371 C12.8375527,11.8803371 12.8481013,11.875 12.8533755,11.875 C12.8691983,11.8696629 12.8850211,11.8643258 12.9061181,11.8536517 C12.9113924,11.8536517 12.9166667,11.8483146 12.9219409,11.8483146 C12.943038,11.8376404 12.964135,11.8269663 12.9852321,11.8162921 C12.9905063,11.8109551 12.9957806,11.8109551 13.0010549,11.805618 C13.0168776,11.7949438 13.0274262,11.7896067 13.0432489,11.7789326 C13.0485232,11.7735955 13.0590717,11.7682584 13.064346,11.7629213 C13.0696203,11.7575843 13.0801688,11.7522472 13.085443,11.7469101 L23.5759494,2.67921348 L23.5759494,17.0359551 L23.5759494,17.0359551 Z" id="Shape"></path>
                    </g>
                </g>
            </g>
        </g>
    </g>
</svg>