<?xml version="1.0" encoding="UTF-8"?>
<svg width="9px" height="9px" viewBox="0 0 9 9" version="1.1" xmlns="http://www.w3.org/2000/svg" xmlns:xlink="http://www.w3.org/1999/xlink">
    <title>Shape</title>
    <g id="Page-1" stroke="none" stroke-width="1" fill="none" fill-rule="evenodd">
        <g id="M_HOMEPAGE_PR" transform="translate(-413.000000, -253.000000)">
            <g id="ONE" transform="translate(43.000000, 166.000000)">
                <g id="STATS" transform="translate(361.000000, 18.000000)">
                    <g id="SNAPCHAT" transform="translate(0.000000, 44.000000)">
                        <text id="OPENS" font-family="Lato-Bold, Lato" font-size="8" font-weight="bold" fill="#8D8D8D">
                            <tspan x="18.716" y="32">OPENS</tspan>
                        </text>
                        <path d="M13.4880524,33.445902 C13.4734744,33.4470248 13.4582806,33.4476405 13.4430868,33.4476405 C12.9099108,33.4476405 12.5676799,33.2057356 12.2367674,32.9717625 C12.0082634,32.8102994 11.7926532,32.6578909 11.5385788,32.6155693 C11.4146021,32.5950514 11.2912048,32.5846204 11.1719546,32.5846204 C10.9571232,32.5846204 10.7876376,32.6177787 10.6639144,32.6419728 C10.5887243,32.6566957 10.5238565,32.6693361 10.4745628,32.6693361 C10.4230597,32.6693361 10.3672467,32.6581988 10.3429982,32.5753303 C10.3219189,32.5035267 10.3066708,32.4340048 10.2920022,32.3667285 C10.254208,32.1936029 10.2273699,32.0871379 10.1548238,32.0760007 C9.30917054,31.9453778 9.06713882,31.7672722 9.0131729,31.6408869 C9.00553075,31.6228137 9.0011845,31.6047043 9.00015226,31.5867761 C8.99741775,31.5382248 9.03180744,31.49536 9.07977916,31.4875186 C10.3797421,31.2734478 10.9626827,29.9448176 10.9868769,29.8883889 C11.068532,29.7225432 11.0841061,29.5825759 11.0354281,29.4678531 C10.9462213,29.2576033 10.6552762,29.1652093 10.4626649,29.1041083 C10.4155444,29.0892043 10.3708685,29.0750971 10.3356277,29.0611891 C9.95131067,28.9092515 9.91932953,28.7532936 9.93443274,28.6738116 C9.96018426,28.5383716 10.1411874,28.4439855 10.2875654,28.4439855 C10.3277139,28.4439855 10.3630453,28.4511025 10.3927628,28.4649743 C10.5656529,28.5459594 10.7214478,28.5870133 10.8558918,28.5870133 C11.0416577,28.5870133 11.1227333,28.5089439 11.1326573,28.4987121 C11.1279307,28.4107367 11.1220814,28.3188317 11.1161053,28.2240291 C11.0773875,27.6094334 11.0294158,26.8457613 11.2238561,26.4098506 C11.8066156,25.1031872 13.042417,25.0016842 13.4072846,25.0016842 C13.4166291,25.0016842 13.5672447,25.0000905 13.5672447,25.0000905 C13.9545679,25 15.1930677,25.1017022 15.7761531,26.4090719 C15.9706478,26.845218 15.9225312,27.609542 15.8837409,28.223667 L15.8821292,28.2503602 C15.8767507,28.3358907 15.8715714,28.4189946 15.8672251,28.4985672 C15.8765153,28.5080565 15.9510896,28.579842 16.1195068,28.5863071 C16.2476668,28.5813994 16.3947511,28.540599 16.5561599,28.4649924 C16.6034797,28.4429171 16.656015,28.4382449 16.691781,28.4382449 C16.7463988,28.4382449 16.8017954,28.4488208 16.8477751,28.4680167 C16.9811325,28.515427 17.066663,28.6069518 17.0684921,28.7025692 C17.0701943,28.792609 17.0014512,28.9279947 16.6642366,29.0612072 C16.6292855,29.0749341 16.5846097,29.0891318 16.537308,29.1041264 C16.3445157,29.1652998 16.0536611,29.2576214 15.9645087,29.4678169 C15.9157764,29.5824854 15.9313866,29.7223622 16.010923,29.8836804 C16.0372359,29.9447814 16.6196694,31.2730312 17.9201938,31.4873375 C17.9682199,31.4952513 18.0025009,31.53808 17.9998569,31.5866855 C17.9987704,31.6049035 17.9943336,31.6232483 17.9865647,31.6410861 C17.9329247,31.7665659 17.6910741,31.9444361 16.8451492,32.0751495 C16.7760439,32.0857616 16.7492601,32.1758195 16.7080251,32.3646459 C16.6930305,32.433371 16.6778367,32.5008827 16.6569385,32.5718714 C16.6389197,32.6334795 16.6005278,32.6623096 16.5359498,32.6623096 C16.4806076,32.6623096 16.4168807,32.6542872 16.3361311,32.6384415 C16.1929222,32.6104263 16.0323464,32.5846204 15.8280546,32.5846204 C15.7087501,32.5846204 15.5853166,32.5950514 15.4612493,32.6155693 C15.2074646,32.6578909 14.9919812,32.8100096 14.7639118,32.9712374 C14.4323474,33.2057356 14.0901708,33.4476405 13.5568318,33.4476405 C13.5336337,33.4476405 13.5108521,33.4469705 13.4880524,33.445902 Z" id="Shape" fill="#D9D9D9"></path>
                    </g>
                </g>
            </g>
        </g>
    </g>
</svg>