<?xml version="1.0" encoding="UTF-8"?>
<svg width="9px" height="9px" viewBox="0 0 9 9" version="1.1" xmlns="http://www.w3.org/2000/svg" xmlns:xlink="http://www.w3.org/1999/xlink">
    <title>Group 3</title>
    <g id="Page-1" stroke="none" stroke-width="1" fill="none" fill-rule="evenodd">
        <g id="M_HOMEPAGE_PR" transform="translate(-61.000000, -254.000000)" fill="#F60051">
            <g id="ONE" transform="translate(43.000000, 166.000000)">
                <g id="Group-3" transform="translate(18.000000, 88.000000)">
                    <path d="M4.48805241,8.44590204 C4.47347437,8.44702482 4.45828061,8.44764054 4.44308685,8.44764054 C3.90991079,8.44764054 3.56767993,8.20573558 3.23676742,7.97176253 C3.0082634,7.81029939 2.79265325,7.65789094 2.53857879,7.61556934 C2.41460205,7.59505143 2.29120481,7.58462043 2.17195461,7.58462043 C1.95712316,7.58462043 1.78763757,7.61777869 1.66391436,7.6419728 C1.58872426,7.65669572 1.5238565,7.66933606 1.47456279,7.66933606 C1.42305975,7.66933606 1.36724667,7.6581988 1.34299822,7.57533032 C1.32191892,7.50352667 1.30667083,7.43400481 1.29200224,7.3667285 C1.25420799,7.19360293 1.2273699,7.08713794 1.15482377,7.07600068 C0.309170542,6.9453778 0.0671388199,6.76727215 0.013172899,6.64088686 C0.00553074513,6.62281371 0.00118449647,6.60470434 0.000152262413,6.58677607 C-0.00258225237,6.53822485 0.0318074402,6.49535997 0.0797791598,6.48751861 C1.37974213,6.27344776 1.96268274,4.94481765 1.98687685,4.88838885 C2.068532,4.72254325 2.08410606,4.58257593 2.03542807,4.46785308 C1.94622132,4.2576033 1.65527619,4.1652093 1.46266494,4.10410828 C1.41554436,4.08920427 1.37086854,4.07509707 1.33562771,4.06118908 C0.951310673,3.90925147 0.919329526,3.75329358 0.93443274,3.67381156 C0.960184264,3.53837158 1.14118741,3.44398555 1.28756544,3.44398555 C1.32771392,3.44398555 1.3630453,3.45110253 1.39276277,3.46497431 C1.56565292,3.54595941 1.72144783,3.58701335 1.85589178,3.58701335 C2.0416577,3.58701335 2.12273334,3.50894386 2.13265728,3.49871206 C2.12793073,3.41073675 2.12208141,3.3188317 2.11610531,3.22402915 C2.07738748,2.60943337 2.02941576,1.84576126 2.22385606,1.40985063 C2.80661557,0.103187187 4.04241705,0.00168417136 4.40728462,0.00168417136 C4.41662906,0.00168417136 4.56724468,9.05468471e-05 4.56724468,9.05468471e-05 C4.95456788,-2.84217501e-14 6.19306765,0.101702219 6.77615313,1.40907193 C6.97064776,1.84521798 6.92253116,2.60954202 6.88374089,3.22366696 L6.88212916,3.25036017 C6.87675068,3.33589072 6.8715714,3.41899462 6.86722515,3.49856719 C6.87651525,3.5080565 6.95108964,3.57984204 7.11950677,3.58630708 C7.24766678,3.58139944 7.39475108,3.54059904 7.55615989,3.46499242 C7.60347967,3.4429171 7.65601495,3.43824488 7.69178096,3.43824488 C7.74639882,3.43824488 7.80179538,3.44882075 7.84777507,3.46801668 C7.98113246,3.51542701 8.06666301,3.60695176 8.06849206,3.70256924 C8.07019434,3.79260902 8.00145117,3.92799467 7.66423661,4.06120719 C7.62928552,4.07493409 7.58460971,4.08913183 7.53730804,4.10412639 C7.34451569,4.16529984 7.05366111,4.25762141 6.96450868,4.46781686 C6.91577637,4.58248539 6.93138664,4.72236216 7.01092299,4.88368042 C7.03723591,4.94478143 7.61966945,6.27303124 8.92019381,6.48733752 C8.96821986,6.49525131 9.0025009,6.53807997 8.99985693,6.58668552 C8.99877037,6.60490354 8.99433357,6.62324834 8.98656465,6.64108606 C8.9329247,6.76656589 8.69107407,6.94443611 7.84514921,7.07514954 C7.77604385,7.08576163 7.7492601,7.17581953 7.70802506,7.36464592 C7.6930305,7.43337098 7.67783674,7.50088271 7.65693853,7.57187143 C7.63891971,7.63347951 7.60052784,7.66230963 7.53594983,7.66230963 C7.4806076,7.66230963 7.41688073,7.65428717 7.33613105,7.63844148 C7.19292216,7.61042628 7.03234638,7.58462043 6.82805458,7.58462043 C6.70875006,7.58462043 6.58531659,7.59505143 6.4612493,7.61556934 C6.2074646,7.65789094 5.99198121,7.81000964 5.76391182,7.97123736 C5.43234737,8.20573558 5.09017084,8.44764054 4.5568318,8.44764054 C4.53363369,8.44764054 4.51085211,8.44697049 4.48805241,8.44590204 Z" id="Shape"></path>
                </g>
            </g>
        </g>
    </g>
</svg>